<svg xmlns="http://www.w3.org/2000/svg" viewBox="18 10 64 84" width="512" height="672"><path d="M22 14 L45 34 L50 40 L55 34 L78 14 L73 41 L69 58 L62 72 L54 82 L50 90 L46 82 L38 72 L31 58 L27 41 Z" fill="#140C2E"/><path d="M22 14 L34 20 L31 40 Z" fill="#5A23A8"/><path d="M34 20 L45 34 L31 40 Z" fill="#7B2FD4"/><path d="M78 14 L66 20 L69 40 Z" fill="#5A23A8"/><path d="M66 20 L55 34 L69 40 Z" fill="#7B2FD4"/><path d="M45 34 L55 34 L50 46 Z" fill="#9B45F0"/><path d="M45 34 L50 46 L37 50 L31 40 Z" fill="#6E5BEC"/><path d="M55 34 L69 40 L63 50 L50 46 Z" fill="#4F7BF2"/><path d="M31 40 L37 50 L35 66 L27 54 Z" fill="#6E5BEC"/><path d="M69 40 L63 50 L65 66 L73 54 Z" fill="#4F7BF2"/><path d="M37 50 L50 46 L50 62 L44 65 Z" fill="#4F7BF2"/><path d="M50 46 L63 50 L56 65 L50 62 Z" fill="#2FA8F0"/><path d="M44 65 L50 62 L56 65 L50 79 Z" fill="#2FA8F0"/><path d="M35 66 L44 65 L50 79 L41 77 Z" fill="#2FA8F0"/><path d="M65 66 L56 65 L50 79 L59 77 Z" fill="#43D6E6"/><path d="M41 77 L50 79 L59 77 L50 90 Z" fill="#43D6E6"/><path d="M36 48 L47 51 L40 57 Z" fill="#16E0C8"/><path d="M64 48 L53 51 L60 57 Z" fill="#16E0C8"/><path d="M50 72 L45 67 L55 67 Z" fill="#3A2A7A"/></svg>